<svg width="140" height="140" viewBox="0 0 140 140" fill="none" xmlns="http://www.w3.org/2000/svg">
<g clip-path="url(#clip0_13_30)">
<path d="M70.0001 137.2C107.114 137.2 137.2 107.114 137.2 70.0001C137.2 32.8865 107.114 2.80005 70.0001 2.80005C32.8865 2.80005 2.80005 32.8865 2.80005 70.0001C2.80005 107.114 32.8865 137.2 70.0001 137.2Z" stroke="white" stroke-width="2" stroke-miterlimit="10" stroke-linecap="round"/>
<path d="M83.8123 99.4784C83.4035 94.9648 83.5603 91.8148 83.5603 87.6904C85.6043 86.618 89.2667 79.7804 89.8855 74.004C91.4927 73.8724 94.0267 72.3044 94.7687 66.1136C95.1691 62.79 93.5787 60.9196 92.6099 60.3316C95.2251 52.4664 100.657 28.1344 82.5635 25.62C80.7015 22.3496 75.9331 20.6948 69.7367 20.6948C44.9455 21.1512 41.9551 39.4156 47.3899 60.3316C46.4239 60.9196 44.8335 62.79 45.2311 66.1136C45.9759 72.3044 48.5071 73.8724 50.1143 74.004C50.7303 79.7776 54.5383 86.618 56.5879 87.6904C56.5879 91.8148 56.7419 94.9648 56.3331 99.4784C52.8023 108.97 34.6695 109.712 24.2087 118.866C35.1455 129.878 52.8695 137.754 71.5735 137.754C90.2775 137.754 112.263 122.987 115.923 118.958C105.526 109.721 87.3515 109.004 83.8123 99.4784Z" stroke="white" stroke-width="2" stroke-miterlimit="10" stroke-linecap="round"/>
</g>
<defs>
<clipPath id="clip0_13_30">
<rect width="140" height="140" fill="white"/>
</clipPath>
</defs>
</svg>
